# AST/ASF file generated using VICON BodyLanguage
# -----------------------------------------------
:version 1.10
:name VICON
:units
  mass 1.0
  length 0.45
  angle deg
:documentation
   .ast/.asf automatically generated from VICON data using
   VICON BodyBuilder and BodyLanguage model FoxedUp or BRILLIANT.MOD
:root
   order TX TY TZ RX RY RZ
   axis XYZ
   position 0 0 0  
   orientation 0 0 0 
:bonedata
  begin
     id 1 
     name lhipjoint
     direction 0.623529 -0.717805 0.309788 
     length 2.23224 
     axis 0 0 0  XYZ
  end
  begin
     id 2 
     name lfemur
     direction 0.34202 -0.939693 0  
     length 7.11402  
     axis 0 0 20  XYZ
    dof rx ry rz
    limits (-160.0 20.0)
           (-70.0 70.0)
           (-60.0 70.0)
  end
  begin
     id 3 
     name ltibia
     direction 0.34202 -0.939693 0   
     length 6.78496   
     axis 0 0 20   XYZ
    dof rx
    limits (-10.0 170.0)
  end
  begin
     id 4 
     name lfoot
     direction 0.125078 -0.343648 0.930732   
     length 1.84054   
     axis -90 7.62852e-016 20   XYZ
    dof rx rz
    limits (-45.0 90.0)
           (-70.0 20.0)
  end
  begin
     id 5 
     name ltoes
     direction 1.53565e-011 -4.21893e-011 1   
     length 0.916474   
     axis -90 7.62852e-016 20   XYZ
    dof rx
    limits (-90.0 20.0)
  end
  begin
     id 6 
     name rhipjoint
     direction -0.564688 -0.757748 0.327026   
     length 2.11457  
     axis 0 0 0  XYZ 
  end
  begin
     id 7 
     name rfemur
     direction -0.34202 -0.939693 0   
     length 7.14609   
     axis 0 0 -20   XYZ
    dof rx ry rz
    limits (-160.0 20.0)
           (-70.0 70.0)
           (-70.0 60.0)
  end
  begin
     id 8 
     name rtibia
     direction -0.34202 -0.939693 0   
     length 6.78101   
     axis 0 0 -20   XYZ
    dof rx
    limits (-10.0 170.0)
 end
 begin
     id 9 
     name rfoot
     direction -0.0992671 -0.272734 0.956955   
     length 1.96168  
     axis -90 -7.62852e-016 -20   XYZ
    dof rx rz
    limits (-45.0 90.0)
           (-20.0 70.0)
  end
  begin
     id 10 
     name rtoes
     direction -1.5356e-011 -4.21891e-011 1   
     length 0.982933   
     axis -90 -7.62852e-016 -20   XYZ
    dof rx
    limits (-90.0 20.0)
  end
  begin
     id 11 
     name lowerback
     direction -0.00596953 0.998668 0.0512524   
     length 1.87557   
     axis 0 0 0   XYZ
    dof rx ry rz
    limits (-20.0 45.0)
           (-30.0 30.0)
           (-30.0 30.0)
  end
  begin
     id 12 
     name upperback
     direction 0.00584879 0.999652 0.0257308   
     length 1.87883   
     axis 0 0 0   XYZ
    dof rx ry rz
    limits (-20.0 45.0)
           (-30.0 30.0)
           (-30.0 30.0)
  end
  begin
     id 13 
     name thorax
     direction 0.010104 0.999947 0.00178881   
     length 1.87779   
     axis 0 0 0   XYZ
    dof rx ry rz
    limits (-20.0 45.0)
           (-30.0 30.0)
           (-30.0 30.0)
  end
  begin
     id 14 
     name lowerneck
     direction 0.0120771 0.995934 -0.0892773   
     length 1.40897   
     axis 0 0 0   XYZ
    dof rx ry rz
    limits (-20.0 45.0)
           (-30.0 30.0)
           (-30.0 30.0)
  end
  begin
     id 15 
     name upperneck
     direction -0.030568 0.999465 -0.0116366   
     length 1.38661   
     axis 0 0 0   XYZ
    dof rx ry rz
    limits (-20.0 45.0)
           (-30.0 30.0)
           (-30.0 30.0)
  end
  begin
     id 16
     name head
     direction -0.0170715 0.999854 -0.00104426  
     length 1.47052  
     axis 0 0 0   XYZ
    dof rx ry rz
    limits (-20.0 45.0)
           (-30.0 30.0)
           (-30.0 30.0)
  end
  begin
     id 17 
     name lclavicle
     direction 0.977763 0.206143 0.038532  
     length 3.02424  
     axis 0 0 0   XYZ
    dof ry rz
    limits (-20.0 10.0)
           (0.0 20.0)
  end
  begin
     id 18 
     name lhumerus
     direction 1 -4.48965e-011 -2.62654e-027   
     length 4.68382   
     axis 180 -30 -90   XYZ
    dof rx ry rz
    limits (-60.0 90.0)
           (-90.0 90.0)
           (-90.0 90.0)
  end
  begin
     id 19
     name lradius
     direction 1 -4.48973e-011 -1.54954e-027   
     length 2.98124   
     axis 180 -30 -90   XYZ
    dof rx
    limits (-10.0 170.0)
  end
  begin
     id 20
     name lwrist
     direction 1 -4.48959e-011 7.20928e-028   
     length 1.49062   
     axis -5.52449e-016 90 90   XYZ
    dof ry
    limits (-180.0 0.0)
 end
  begin
     id 21 
     name lhand
     direction 1 -4.48971e-011 1.44186e-027   
     length 0.707595   
     axis -9.20027e-016 90 90   XYZ
    dof rx rz
    limits (-90.0 90.0)
           (-45.0 45.0)
  end
  begin
     id 22 
     name lfingers
     direction 1 -4.48985e-011 2.88371e-027   
     length 0.570481   
     axis -1.84005e-015 90 90   XYZ
    dof rx
    limits (0.0 90.0)
  end
  begin
     id 23
     name lthumb
     direction 0.707107 -6.34929e-011 0.707107   
     length 0.819101   
     axis -90 45 2.85299e-015   XYZ
    dof rx rz
    limits (-45.0 45.0)
           (-45.0 45.0)
  end
  begin
     id 24 
     name rclavicle
     direction -0.958661 0.284411 -0.00895327   
     length 3.11921  
     axis 0 0 0   XYZ 
    dof ry rz
    limits (-10.0 20.0)
           (-20.0 0.0)
  end
  begin
     id 25 
     name rhumerus
     direction -1 -4.48963e-011 -4.22193e-027  
     length 4.75876   
     axis 180 30 90   XYZ
    dof rx ry rz
    limits (-90.0 60.0)
           (-90.0 90.0)
           (-90.0 90.0)
  end
  begin
     id 26 
     name rradius
     direction -1 -4.48968e-011 -1.07616e-027   
     length 2.93293   
     axis 180 30 90   XYZ
    dof rx
    limits (-10.0 170.0)
  end
  begin
     id 27 
     name rwrist
     direction -1 -4.48965e-011 7.20928e-028   
     length 1.46647   
     axis -5.52449e-016 -90 -90   XYZ
    dof ry
    limits (-180.0 0.0)
  end
  begin
     id 28
     name rhand
     direction -1 -4.48971e-011 1.44186e-027   
     length 0.831748   
     axis -9.20027e-016 -90 -90   XYZ
    dof rx rz
    limits (-90.0 90.0)
           (-45.0 45.0)
  end
  begin
     id 29
     name rfingers
     direction -1 -4.48961e-011 2.88371e-027   
     length 0.670577   
     axis -1.84005e-015 -90 -90   XYZ
    dof rx
    limits (0.0 90.0)
  end
  begin
     id 30
     name rthumb
     direction -0.707107 -6.34929e-011 0.707107   
     length 0.962818   
     axis -90 -45 -2.85299e-015   XYZ
    dof rx rz
    limits (-45.0 45.0)
           (-45.0 45.0)
  end
:hierarchy
  begin
    root lhipjoint rhipjoint lowerback
    lhipjoint lfemur
    lfemur ltibia
    ltibia lfoot
    lfoot ltoes
    rhipjoint rfemur
    rfemur rtibia
    rtibia rfoot
    rfoot rtoes
    lowerback upperback
    upperback thorax
    thorax lowerneck lclavicle rclavicle
    lowerneck upperneck
    upperneck head
    lclavicle lhumerus
    lhumerus lradius
    lradius lwrist
    lwrist lhand lthumb
    lhand lfingers
    rclavicle rhumerus
    rhumerus rradius
    rradius rwrist
    rwrist rhand rthumb
    rhand rfingers
  end

#!OML:ASF E:\id_vita\Project 1\Capture day 1\Session 1\Female.ASF
:FULLY-SPECIFIED
:DEGREES
173
root 15.9571 23.025 1.45572 -132.308 -80.9525 156.65
lowerback -13.8749 0.197731 -5.27952
upperback -8.1648 0.375495 0.118583
thorax -0.905477 0.164071 3.14772
lowerneck 0.427932 -1.04255 -4.69099
upperneck 1.1779 -1.44918 4.67275
head 0.367796 -0.733482 2.27071
rclavicle -1.1778e-014 -2.78299e-015
rhumerus 96.0027 -42.2944 -49.9693
rradius 22.8961
rwrist 32.9582
rhand -20.4974 16.2363
rfingers 7.12502
rthumb 5.8596 -13.6626
lclavicle -1.1778e-014 -2.78299e-015
lhumerus 120.808 31.8912 84.3522
lradius 14.7515
lwrist -45.9968
lhand -10.6863 19.4219
lfingers 7.12502
lthumb 15.3226 48.8343
rfemur -38.3656 -4.38582 17.2527
rtibia 46.5212
rfoot 17.7307 2.83241
rtoes -20.162
lfemur -32.2386 -0.169369 -25.2106
ltibia 38.9542
lfoot 7.69848 0.187814
ltoes -9.72386
174
root 16.049 22.6779 1.45142 -132.792 -80.8506 157.296
lowerback -13.9641 0.294544 -5.18206
upperback -8.2882 0.481739 0.0712381
thorax -0.99661 0.212126 3.05687
lowerneck 1.0858 -1.16959 -4.44915
upperneck 0.698761 -1.62726 4.3192
head 0.108626 -0.828375 2.11515
rclavicle -1.21445e-014 1.19271e-014
rhumerus 94.7016 -43.2258 -48.0049
rradius 24.412
rwrist 30.6233
rhand -19.4119 16.3663
rfingers 7.12502
rthumb 6.90756 -13.501
lclavicle -1.21445e-014 1.19271e-014
lhumerus 115.162 37.838 75.226
lradius 17.6023
lwrist -35.9693
lhand -10.6449 21.9971
lfingers 7.12502
lthumb 15.3626 51.4064
rfemur -37.7135 -4.205 17.2876
rtibia 44.7284
rfoot 16.292 2.9129
rtoes -23.1784
lfemur -32.0057 -0.116834 -25.2167
ltibia 37.7597
lfoot 7.79743 0.289901
ltoes -10.2429
175
root 16.1383 22.3251 1.44887 -133.141 -80.6172 157.943
lowerback -14.1799 0.433194 -5.16966
upperback -8.45927 0.651662 -0.012374
thorax -1.07897 0.291642 2.98503
lowerneck 1.3205 -1.22509 -4.26093
upperneck 0.593503 -1.70417 4.05237
head 0.035313 -0.868238 1.99606
rclavicle 1.98163e-015 -4.77083e-015
rhumerus 90.9343 -44.7159 -43.0366
rradius 26.4705
rwrist 26.9405
rhand -19.4394 15.7533
rfingers 7.12502
rthumb 6.88097 -14.1148
lclavicle 1.98163e-015 -4.77083e-015
lhumerus 109.746 42.1893 67.2005
lradius 19.8088
lwrist -28.0671
lhand -11.2051 24.5348
lfingers 7.12502
lthumb 14.8229 53.9847
rfemur -37.2275 -3.87622 17.1667
rtibia 43.0054
rfoot 15.2847 2.36811
rtoes -25.0353
lfemur -31.9775 -0.0648799 -25.3286
ltibia 36.7715
lfoot 8.06292 0.745174
ltoes -9.90118
176
root 16.2331 21.9682 1.45081 -133.41 -80.4207 158.597
lowerback -14.3506 0.552224 -5.05805
upperback -8.54143 0.792642 -0.0624747
thorax -1.08474 0.353846 2.88908
lowerneck 1.37527 -1.24883 -4.04433
upperneck 0.100026 -1.72169 3.77043
head -0.130871 -0.874999 1.86847
rclavicle -1.23495e-014 4.37326e-015
rhumerus 86.9782 -46.1686 -37.8771
rradius 28.9172
rwrist 22.8204
rhand -19.5314 15.3154
rfingers 7.12502
rthumb 6.79219 -14.5556
lclavicle -1.23495e-014 4.37326e-015
lhumerus 103.235 46.2536 58.5474
lradius 22.3539
lwrist -20.7823
lhand -11.5461 27.1641
lfingers 7.12502
lthumb 14.4944 56.6378
rfemur -36.8744 -3.43962 16.9942
rtibia 41.3439
rfoot 14.7292 1.59939
rtoes -26.3906
lfemur -32.1314 -0.120829 -25.4124
ltibia 35.9741
lfoot 8.45909 1.53343
ltoes -9.19983
177
root 16.3366 21.6032 1.45545 -133.094 -80.3502 158.746
lowerback -14.5259 0.605362 -4.86622
upperback -8.56751 0.843805 -0.110312
thorax -1.01719 0.367309 2.73958
lowerneck 1.16501 -1.1169 -4.15472
upperneck -0.282525 -1.53034 3.83284
head -0.220815 -0.776489 1.90841
rclavicle -2.36057e-015 2.14687e-014
rhumerus 82.8162 -47.4903 -33.0455
rradius 31.7615
rwrist 20.1794
rhand -20.5476 14.8448
rfingers 7.12502
rthumb 5.81117 -15.0555
lclavicle -2.36057e-015 2.14687e-014
lhumerus 96.6733 49.5264 50.5368
lradius 25.0575
lwrist -14.7001
lhand -12.3853 27.8215
lfingers 7.12502
lthumb 13.6857 57.3515
rfemur -36.6845 -3.0276 16.8026
rtibia 39.7969
rfoot 14.582 0.919938
rtoes -27.4439
lfemur -32.4984 -0.224766 -25.509
ltibia 35.3488
lfoot 9.00979 2.18618
ltoes -8.36112
178
root 16.4463 21.2273 1.45696 -132.534 -80.3001 158.653
lowerback -14.5831 0.626471 -4.75405
upperback -8.60837 0.85584 -0.127085
thorax -1.02775 0.367545 2.66091
lowerneck 0.694326 -1.02759 -4.34283
upperneck -0.363069 -1.3932 3.84584
head -0.170397 -0.702944 1.9428
rclavicle -3.85145e-015 5.96354e-015
rhumerus 78.0177 -48.8778 -27.7038
rradius 35.2008
rwrist 17.3313
rhand -20.8856 14.4471
rfingers 7.12502
rthumb 5.48477 -15.4619
lclavicle -3.85145e-015 5.96354e-015
lhumerus 89.1674 52.2654 42.1102
lradius 28.1142
lwrist -9.00914
lhand -13.133 28.1618
lfingers 7.12502
lthumb 12.9649 57.739
rfemur -36.6172 -2.55161 16.5736
rtibia 38.4117
rfoot 14.6606 0.0803371
rtoes -28.3003
lfemur -32.9305 -0.239193 -25.6516
ltibia 34.8755
lfoot 9.68163 2.57475
ltoes -7.65059
179
root 16.5587 20.8428 1.45743 -132.229 -80.1945 158.776
lowerback -14.6001 0.715185 -4.63626
upperback -8.59896 0.961548 -0.195504
thorax -1.01169 0.414236 2.53696
lowerneck 0.556914 -1.01435 -4.49675
upperneck -0.915149 -1.36036 3.91072
head -0.31906 -0.683952 1.99368
rclavicle -9.34288e-015 -1.43125e-014
rhumerus 72.6514 -50.217 -22.0521
rradius 38.9709
rwrist 14.4122
rhand -21.2078 14.0469
rfingers 7.12502
rthumb 5.17374 -15.87
lclavicle -9.34288e-015 -1.43125e-014
lhumerus 81.7911 54.3423 34.278
lradius 31.2432
lwrist -4.23943
lhand -14.1969 28.3667
lfingers 7.12502
lthumb 11.9392 58.0063
rfemur -36.5872 -1.89788 16.261
rtibia 37.1995
rfoot 14.8001 -0.932867
rtoes -28.8278
lfemur -33.3263 -0.105209 -25.8204
ltibia 34.5503
lfoot 10.3726 2.8062
ltoes -6.75178
180
root 16.6704 20.451 1.45829 -131.576 -79.9649 158.604
lowerback -14.7237 0.861299 -4.63549
upperback -8.51807 1.16938 -0.31676
thorax -0.87301 0.51313 2.43932
lowerneck 0.599087 -1.00094 -4.91024
upperneck -1.81218 -1.32921 4.22394
head -0.604804 -0.667256 2.17805
rclavicle -3.77691e-015 3.89618e-014
rhumerus 67.7654 -51.4507 -17.0513
rradius 42.4777
rwrist 12.1517
rhand -22.1024 14.3749
rfingers 7.12502
rthumb 4.30988 -15.5613
lclavicle -3.77691e-015 3.89618e-014
lhumerus 75.9295 55.8747 28.6018
lradius 34.1801
lwrist -1.10438
lhand -15.7779 28.3916
lfingers 7.12502
lthumb 10.4144 58.1137
rfemur -36.6964 -1.06454 15.7277
rtibia 36.2128
rfoot 14.9031 -2.13914
rtoes -29.1847
lfemur -33.8019 0.0711656 -26.1132
ltibia 34.343
lfoot 11.2781 2.68366
ltoes -5.21036
181
root 16.7923 20.0526 1.4551 -131.513 -79.9432 158.848
lowerback -14.3795 0.996286 -4.54465
upperback -8.4685 1.33396 -0.347446
thorax -1.00966 0.599772 2.37165
lowerneck -0.0878792 -1.17748 -4.96181
upperneck -2.02781 -1.53669 3.99595
head -0.545266 -0.762839 2.10815
rclavicle -3.13086e-015 5.56597e-015
rhumerus 66.7287 -52.7006 -17.1611
rradius 45.6653
rwrist 13.0857
rhand -23.2265 15.7354
rfingers 7.12502
rthumb 3.22432 -14.22
lclavicle -3.13086e-015 5.56597e-015
lhumerus 69.2437 56.9835 22.4346
lradius 37.1738
lwrist 1.44029
lhand -17.9549 28.6516
lfingers 7.12502
lthumb 8.31384 58.468
rfemur -36.7417 -0.305744 15.393
rtibia 35.4472
rfoot 15.0829 -2.9619
rtoes -29.4402
lfemur -34.2137 0.224304 -26.1981
ltibia 34.2693
lfoot 12.1958 2.00819
ltoes -4.30337
182
root 16.9215 19.6424 1.45296 -130.693 -79.8105 158.45
lowerback -14.1488 1.0933 -4.54545
upperback -8.44218 1.45957 -0.475664
thorax -1.10902 0.664644 2.24937
lowerneck -0.430253 -1.30034 -4.91167
upperneck -2.54535 -1.68369 3.83379
head -0.643192 -0.832576 2.0469
rclavicle 2.5022e-014 -2.38542e-014
rhumerus 61.3156 -53.701 -12.3349
rradius 49.6017
rwrist 11.5345
rhand -25.3921 15.3309
rfingers 7.12502
rthumb 1.13289 -14.6459
lclavicle 2.5022e-014 -2.38542e-014
lhumerus 61.7989 57.6674 15.6611
lradius 40.1699
lwrist 3.57242
lhand -20.6895 29.1842
lfingers 7.12502
lthumb 5.67411 59.0882
rfemur -37.0784 0.341761 14.8882
rtibia 34.9304
rfoot 15.1999 -2.96702
rtoes -29.7508
lfemur -34.8476 0.369539 -26.4384
ltibia 34.311
lfoot 12.7849 0.580721
ltoes -4.38194
183
root 17.0519 19.2222 1.45371 -130.439 -79.7057 158.7
lowerback -13.9688 1.23458 -4.40151
upperback -8.46918 1.62289 -0.605633
thorax -1.23425 0.74197 2.04844
lowerneck -0.469562 -1.3733 -4.87016
upperneck -3.2817 -1.77569 3.76419
head -0.864268 -0.877886 2.02349
rclavicle 3.37934e-014 -3.65764e-014
rhumerus 56.8201 -54.4967 -8.73937
rradius 53.2723
rwrist 10.9557
rhand -27.6631 15.3529
rfingers 7.12502
rthumb -1.06057 -14.6242
lclavicle 3.37934e-014 -3.65764e-014
lhumerus 54.9784 58.0084 9.80695
lradius 42.872
lwrist 4.82133
lhand -23.4223 29.6218
lfingers 7.12502
lthumb 3.03528 59.5799
rfemur -37.6072 0.825557 14.5651
rtibia 34.6563
rfoot 15.016 -2.42935
rtoes -30.1897
lfemur -35.6001 0.418866 -26.5096
ltibia 34.4812
lfoot 13.2756 -0.980836
ltoes -4.14791
184
root 17.1849 18.7887 1.45532 -130.861 -79.6795 159.457
lowerback -13.4033 1.40544 -4.17643
upperback -8.5683 1.79826 -0.670846
thorax -1.63939 0.831316 1.8595
lowerneck -0.581315 -1.41209 -4.96569
upperneck -3.80625 -1.82162 3.75175
head -1.00796 -0.898968 2.0412
rclavicle -3.51849e-014 3.97569e-015
rhumerus 52.4111 -55.0042 -5.52629
rradius 56.9768
rwrist 10.3268
rhand -29.953 15.904
rfingers 7.12502
rthumb -3.27211 -14.0506
lclavicle -3.51849e-014 3.97569e-015
lhumerus 48.5138 58.0147 4.45208
lradius 45.1612
lwrist 5.50259
lhand -25.9408 30.0481
lfingers 7.12502
lthumb 0.602962 60.027
rfemur -38.0569 1.09811 14.4889
rtibia 34.6362
rfoot 14.6243 -1.79704
rtoes -30.6592
lfemur -36.2459 0.340084 -26.3772
ltibia 34.7709
lfoot 14.0744 -3.1143
ltoes -1.75897
